<svg width="24" height="24" viewBox="0 0 24 24" fill="none" xmlns="http://www.w3.org/2000/svg">
<g id="ICON/home-1">
<path id="Icon" d="M19.0167 7.14184C19.6261 7.50155 20 8.15652 20 8.86416V18.0001C20 19.1046 19.1046 20.0001 18 20.0001H16C14.8954 20.0001 14 19.1046 14 18.0001V14C14 12.8954 13.1046 12 12 12V12C10.8954 12 10 12.8954 10 14V18.0001C10 19.1046 9.10457 20.0001 8 20.0001H6C4.89543 20.0001 4 19.1046 4 18.0001V8.86416C4 8.15652 4.37395 7.50155 4.98335 7.14183L10.9833 3.60017C11.6106 3.22994 12.3894 3.22994 13.0167 3.60017L19.0167 7.14184Z" stroke="#3680F7" stroke-width="2" stroke-linecap="round" stroke-linejoin="round"/>
</g>
</svg>
