<svg width="24" height="24" viewBox="0 0 24 24" fill="none" xmlns="http://www.w3.org/2000/svg">
<g id="ICON/home-1">
<path id="Icon" d="M19.0167 7.14177C19.6261 7.50149 20 8.15646 20 8.8641V18C20 19.1046 19.1046 20 18 20H16C14.8954 20 14 19.1046 14 18V13.9999C14 12.8954 13.1046 11.9999 12 11.9999V11.9999C10.8954 11.9999 10 12.8954 10 13.9999V18C10 19.1046 9.10457 20 8 20H6C4.89543 20 4 19.1046 4 18V8.8641C4 8.15646 4.37395 7.50149 4.98335 7.14177L10.9833 3.60011C11.6106 3.22988 12.3894 3.22988 13.0167 3.60011L19.0167 7.14177Z" stroke="#223047" stroke-width="2" stroke-linecap="round" stroke-linejoin="round"/>
</g>
</svg>
