<svg width="20" height="20" viewBox="0 0 20 20" fill="none" xmlns="http://www.w3.org/2000/svg">
<g id="ICON/icecream">
<path id="Icon" d="M7.08464 5.83333L7.11419 5.83348C7.09471 5.69735 7.08464 5.55819 7.08464 5.41667C7.08464 3.80584 8.39047 2.5 10.0013 2.5C11.6121 2.5 12.918 3.80584 12.918 5.41667C12.918 5.55819 12.9079 5.69735 12.8884 5.83348L12.918 5.83333C14.5288 5.83333 15.8346 7.13917 15.8346 8.75C15.8346 10.3608 14.5288 11.6667 12.918 11.6667M7.08464 5.83333C5.4738 5.83333 4.16797 7.13917 4.16797 8.75C4.16797 10.3608 5.4738 11.6667 7.08464 11.6667M7.08464 5.83333C8.69547 5.83333 10.0013 7.13917 10.0013 8.75L9.97177 9.16667M7.08464 11.6667C8.554 11.6667 9.76959 10.5801 9.97177 9.16667M7.08464 11.6667L9.23074 16.8786C9.51405 17.5667 10.4886 17.5667 10.7719 16.8786L12.918 11.6667M9.97177 9.16667H10.0308C10.233 10.5801 11.4486 11.6667 12.918 11.6667" stroke="#223047" stroke-width="2" stroke-linecap="round" stroke-linejoin="round"/>
</g>
</svg>
