<svg width="116" height="20" viewBox="0 0 116 20" fill="none" xmlns="http://www.w3.org/2000/svg">
<g id="KAIST BAI">
<path d="M0 19.7311V0.268816H3.99779V8.89782H4.26431L11.2738 0.268816H16.0978L8.90176 8.97847L16.1777 19.7311H11.3804L6.02334 11.6935L3.99779 14.1666V19.7311H0Z" fill="#223047"/>
<path d="M19.957 19.7311H15.6394L22.329 0.268816H27.4728L34.1358 19.7311H29.8449L28.3923 15.2419H21.4095L19.957 19.7311ZM22.4223 12.0967H27.3796L24.9676 4.65052H24.8343L22.4223 12.0967Z" fill="#223047"/>
<path d="M38.9545 0.268816V19.7311H34.9567V0.268816H38.9545Z" fill="#223047"/>
<path d="M51.3157 5.83332C51.1558 4.28762 49.9431 3.38709 47.9842 3.38709C45.9586 3.38709 44.8259 4.32794 44.8126 5.61826C44.7993 7.02955 46.2385 7.66127 47.9042 8.03761L49.6366 8.46772C52.9415 9.23384 55.4068 10.9274 55.4201 14.1666C55.4068 17.7284 52.6616 20.0134 47.9575 19.9999C43.2934 20.0134 40.3218 17.836 40.2018 13.6559H44.093C44.2263 15.6182 45.7721 16.6129 47.9042 16.6129C50.0097 16.6129 51.369 15.6182 51.369 14.1666C51.369 12.836 50.1697 12.2177 48.0642 11.6935L45.9586 11.1828C42.7071 10.3763 40.7082 8.73653 40.7082 5.88708C40.6949 2.35214 43.7865 0 48.0108 0C52.2885 0 55.1003 2.39247 55.1536 5.83332H51.3157Z" fill="#223047"/>
<path d="M55.9212 3.60214V0.268816H71.7258V3.60214H65.809V19.7311H61.8379V3.60214H55.9212Z" fill="#223047"/>
<path d="M77.7651 19.7311V0.268816H85.4409C89.6918 0.268816 91.8507 2.3387 91.8373 5.2688C91.8507 7.55374 90.3582 8.99191 88.3726 9.43545V9.62363C90.5447 9.73115 92.5969 11.4785 92.6102 14.3548C92.5969 17.4462 90.3048 19.7311 85.9473 19.7311H77.7651ZM81.7629 16.3978H85.1477C87.4664 16.4112 88.4659 15.4435 88.4525 13.9785C88.4659 12.3387 87.2265 11.1828 85.2543 11.1828H81.7629V16.3978ZM81.7629 8.41395H84.8545C86.5336 8.42739 87.7996 7.47309 87.7862 5.91396C87.7996 4.50267 86.7601 3.54838 84.9345 3.54838H81.7629V8.41395Z" fill="#223047"/>
<path d="M97.0025 19.7311H92.6849L99.3745 0.268816H104.518L111.181 19.7311H106.89L105.438 15.2419H98.455L97.0025 19.7311ZM99.4678 12.0967H104.425L102.013 4.65052H101.88L99.4678 12.0967Z" fill="#223047"/>
<path d="M116 0.268816V19.7311H112.002V0.268816H116Z" fill="#223047"/>
</g>
</svg>
