<svg width="24" height="24" viewBox="0 0 24 24" fill="none" xmlns="http://www.w3.org/2000/svg">
<g id="ICON/settings">
<g id="Icon">
<path d="M9.65324 4.56614C9.85659 3.65106 10.6682 3 11.6056 3H12.3969C13.3343 3 14.146 3.65106 14.3493 4.56614L14.5522 5.47935C15.2134 5.73819 15.8255 6.09467 16.371 6.53105L17.2652 6.24961C18.1593 5.96818 19.129 6.34554 19.5977 7.15735L19.9933 7.84264C20.462 8.65445 20.304 9.68287 19.6132 10.3165L18.923 10.9496C18.9745 11.2922 19.0013 11.643 19.0013 12C19.0013 12.357 18.9745 12.7078 18.923 13.0504L19.6132 13.6835C20.304 14.3171 20.462 15.3455 19.9933 16.1574L19.5977 16.8426C19.129 17.6545 18.1593 18.0318 17.2652 17.7504L16.371 17.4689C15.8255 17.9053 15.2134 18.2618 14.5522 18.5206L14.3493 19.4339C14.146 20.3489 13.3343 21 12.3969 21H11.6056C10.6682 21 9.85659 20.3489 9.65324 19.4339L9.45031 18.5206C8.78918 18.2618 8.17701 17.9053 7.63156 17.4689L6.73736 17.7504C5.84321 18.0318 4.87356 17.6545 4.40486 16.8426L4.0092 16.1573C3.5405 15.3455 3.69853 14.3171 4.38933 13.6835L5.07955 13.0504C5.028 12.7077 5.00127 12.357 5.00127 12C5.00127 11.643 5.028 11.2922 5.07956 10.9496L4.38935 10.3165C3.69854 9.68288 3.54052 8.65446 4.00922 7.84265L4.40487 7.15735C4.87357 6.34554 5.84322 5.96818 6.73738 6.24962L7.63157 6.53106C8.17702 6.09467 8.78918 5.73819 9.45031 5.47935L9.65324 4.56614Z" stroke="#223047" stroke-width="2" stroke-linecap="round" stroke-linejoin="round"/>
<path d="M13.0013 12C13.0013 12.5523 12.5535 13 12.0013 13C11.449 13 11.0013 12.5523 11.0013 12C11.0013 11.4477 11.449 11 12.0013 11C12.5535 11 13.0013 11.4477 13.0013 12Z" stroke="#3680F7" stroke-width="2" stroke-linecap="round" stroke-linejoin="round"/>
</g>
</g>
</svg>
